<svg width="20" height="21" viewBox="0 0 20 21" fill="none" xmlns="http://www.w3.org/2000/svg">
<path d="M19.4518 19.1406L14.3897 14.1595C15.7153 12.7193 16.5298 10.8146 16.5298 8.71872C16.5292 4.23518 12.8361 0.601074 8.28021 0.601074C3.72428 0.601074 0.03125 4.23518 0.03125 8.71872C0.03125 13.2023 3.72428 16.8364 8.28021 16.8364C10.2487 16.8364 12.0541 16.1555 13.4723 15.0236L18.554 20.0243C18.8017 20.2683 19.2036 20.2683 19.4513 20.0243C19.6994 19.7805 19.6994 19.3846 19.4518 19.1406ZM8.28021 15.5874C4.4254 15.5874 1.30047 12.5122 1.30047 8.71872C1.30047 4.92523 4.4254 1.85002 8.28021 1.85002C12.1351 1.85002 15.26 4.92523 15.26 8.71872C15.26 12.5122 12.1351 15.5874 8.28021 15.5874Z" fill="#AAAAAA"/>
</svg>
